<mxfile host="app.diagrams.net" agent="Mozilla/5.0 (Windows NT 10.0; Win64; x64; rv:129.0) Gecko/20100101 Firefox/129.0" version="24.7.5">
  <diagram name="Page-1" id="ECgEnuRAhaWpuUaR_kdg">
    <mxGraphModel dx="1194" dy="696" grid="1" gridSize="10" guides="1" tooltips="1" connect="1" arrows="1" fold="1" page="1" pageScale="1" pageWidth="850" pageHeight="1100" math="0" shadow="0">
      <root>
        <mxCell id="0" />
        <mxCell id="1" parent="0" />
        <mxCell id="VxjPBg2Z0xcaR61SImPb-7" style="edgeStyle=orthogonalEdgeStyle;rounded=0;orthogonalLoop=1;jettySize=auto;html=1;" edge="1" parent="1" source="VxjPBg2Z0xcaR61SImPb-1" target="VxjPBg2Z0xcaR61SImPb-2">
          <mxGeometry relative="1" as="geometry" />
        </mxCell>
        <mxCell id="VxjPBg2Z0xcaR61SImPb-1" value="" style="ellipse;whiteSpace=wrap;html=1;" vertex="1" parent="1">
          <mxGeometry x="140" y="210" width="260" height="170" as="geometry" />
        </mxCell>
        <mxCell id="VxjPBg2Z0xcaR61SImPb-2" value="" style="ellipse;whiteSpace=wrap;html=1;" vertex="1" parent="1">
          <mxGeometry x="540" y="205" width="250" height="180" as="geometry" />
        </mxCell>
        <mxCell id="VxjPBg2Z0xcaR61SImPb-5" style="edgeStyle=orthogonalEdgeStyle;rounded=0;orthogonalLoop=1;jettySize=auto;html=1;exitX=0.5;exitY=0.5;exitDx=0;exitDy=0;exitPerimeter=0;" edge="1" parent="1" source="VxjPBg2Z0xcaR61SImPb-3" target="VxjPBg2Z0xcaR61SImPb-1">
          <mxGeometry relative="1" as="geometry" />
        </mxCell>
        <mxCell id="VxjPBg2Z0xcaR61SImPb-3" value="Supplier" style="shape=umlActor;verticalLabelPosition=bottom;verticalAlign=top;html=1;outlineConnect=0;" vertex="1" parent="1">
          <mxGeometry x="160" y="50" width="30" height="60" as="geometry" />
        </mxCell>
        <mxCell id="VxjPBg2Z0xcaR61SImPb-6" style="edgeStyle=orthogonalEdgeStyle;rounded=0;orthogonalLoop=1;jettySize=auto;html=1;entryX=0.5;entryY=1;entryDx=0;entryDy=0;" edge="1" parent="1" source="VxjPBg2Z0xcaR61SImPb-4" target="VxjPBg2Z0xcaR61SImPb-1">
          <mxGeometry relative="1" as="geometry" />
        </mxCell>
        <mxCell id="VxjPBg2Z0xcaR61SImPb-4" value="&lt;div&gt;Customer&lt;/div&gt;" style="shape=umlActor;verticalLabelPosition=bottom;verticalAlign=top;html=1;outlineConnect=0;" vertex="1" parent="1">
          <mxGeometry x="160" y="480" width="30" height="60" as="geometry" />
        </mxCell>
      </root>
    </mxGraphModel>
  </diagram>
</mxfile>
